<svg width="1259" height="392" viewBox="0 0 1259 392" fill="none" xmlns="http://www.w3.org/2000/svg">
<path d="M139.835 7.01574L111.697 0L105.165 26.198L133.303 33.2137L139.835 7.01574Z" fill="#295176"/>
<path d="M1056.84 165.016L1028.7 158L1022.16 184.198L1050.3 191.214L1056.84 165.016Z" fill="#536678"/>
<path d="M993.073 233.08L980.459 229.935L973.927 256.133L986.541 259.278L993.073 233.08Z" fill="#A6C4E0"/>
<path d="M1070.46 34.9646L1050.54 46.4646L1062.54 67.2492L1082.46 55.7492L1070.46 34.9646Z" fill="#2CC92C"/>
<path d="M56.2338 132.318L27.2382 131.812L26.9764 146.81L55.972 147.316L56.2338 132.318Z" fill="#76295A"/>
<path d="M105.233 260.362L76.2378 259.856L75.7666 286.852L104.762 287.358L105.233 260.362Z" fill="#357629"/>
<path d="M1086.16 337.627L1058.28 329.633L1050.84 355.587L1078.72 363.581L1086.16 337.627Z" fill="#52464E"/>
<path d="M1218.23 146.231L1204.24 145.987L1203.77 172.983L1217.76 173.227L1218.23 146.231Z" fill="#B1B13E"/>
<path d="M15.2345 364.231L1.23663 363.987L0.765418 390.983L14.7633 391.227L15.2345 364.231Z" fill="#B1B13E"/>
<path d="M1250.57 30.3218L1258.99 19.1409L1237.43 2.89186L1229.01 14.0728L1250.57 30.3218Z" fill="#9A6F8F"/>
<path d="M194.941 88.0373L166.685 94.5609L170.059 109.176L198.316 102.653L194.941 88.0373Z" fill="#B6D1E9"/>
<path d="M230.754 258.085L203.865 247.221L198.246 261.129L225.135 271.993L230.754 258.085Z" fill="#B6E9C7"/>
</svg>
